<svg id="Layer_1" data-name="Layer 1" xmlns="http://www.w3.org/2000/svg" viewBox="0 0 256 256"><defs><style>.cls-1{fill:#d3d3d3;}.cls-2{opacity:0.8;}.cls-3{fill:#fff;}.cls-4{fill:#00a0e8;}.cls-5{fill:#9b5d8f;}</style></defs><title>woo-alipay-icon</title><rect class="cls-1" width="256" height="256"/><rect class="cls-2" y="98" width="256" height="60"/><path class="cls-3" d="M28.18,136.17h-2L36.8,118.5h1.9Z" transform="translate(0 0)"/><path class="cls-3" d="M44.19,128.58v-3.73l-2.82,2-1-1.73,3.3-1.61-3.3-1.63,1-1.71,2.82,2V118.5h2v3.74l2.83-2,1,1.7-3.31,1.63L50,125.16l-1,1.74-2.83-2v3.73Z" transform="translate(0 0)"/><path class="cls-3" d="M66.38,135.66,64.44,119h2l1.13,10.15.15,1.69h.05l.22-1.69L69.73,119h2l2,10.56.2,1.61H74l.13-1.62L75.34,119H77l-2,16.67H73l-2.15-11.3-.23-1.7h-.05l-.2,1.7-1.93,11.3Z" transform="translate(0 0)"/><path class="cls-3" d="M83.51,136a5.16,5.16,0,0,1-4.12-1.8,7.43,7.43,0,0,1,0-9.07,5.62,5.62,0,0,1,8.23,0,7.43,7.43,0,0,1,0,9.07A5.15,5.15,0,0,1,83.51,136Zm0-1.67A3,3,0,0,0,86,133.09a6.68,6.68,0,0,0,0-6.84,3.23,3.23,0,0,0-5.1,0,6.68,6.68,0,0,0,0,6.84A3,3,0,0,0,83.51,134.33Z" transform="translate(0 0)"/><path class="cls-3" d="M96.27,136a5.16,5.16,0,0,1-4.12-1.8,7.43,7.43,0,0,1,0-9.07,5.62,5.62,0,0,1,8.23,0,7.43,7.43,0,0,1,0,9.07A5.15,5.15,0,0,1,96.27,136Zm0-1.67a3,3,0,0,0,2.54-1.25,6.67,6.67,0,0,0,0-6.84,3.23,3.23,0,0,0-5.09,0,6.68,6.68,0,0,0,0,6.84A3,3,0,0,0,96.27,134.33Z" transform="translate(0 0)"/><path class="cls-3" d="M117.63,135.66h-2.08L120.68,119h2.2L128,135.66h-2.29L124.62,132h-5.86Zm1.65-5.33h4.86l-2-6.33-.47-1.69-.42,1.69Z" transform="translate(0 0)"/><path class="cls-3" d="M132.84,135.66V120h-3.59v-1.67h5.59V134h3.75v1.67Z" transform="translate(0 0)"/><path class="cls-3" d="M145.74,135.66V125.33h-3.33v-1.67h5.33V134h3.34v1.67Zm-.32-16.33a1.16,1.16,0,0,1,.46-1,1.31,1.31,0,0,1,1.74,0,1.16,1.16,0,0,1,.46,1,1.15,1.15,0,0,1-.46,1,1.31,1.31,0,0,1-1.74,0A1.15,1.15,0,0,1,145.42,119.33Z" transform="translate(0 0)"/><path class="cls-3" d="M157,126.36a6.56,6.56,0,0,1,2.2-2.27,4.66,4.66,0,0,1,2.35-.76,3.62,3.62,0,0,1,2.71,1.3,5.64,5.64,0,0,1,1.2,3.94,8.38,8.38,0,0,1-.8,3.72,6.75,6.75,0,0,1-2.13,2.59,5.53,5.53,0,0,1-3.3,1q-.56,0-1.72-.12l-.52-.05v4.66h-2V123.67h2Zm0,2.38v5.15a8,8,0,0,0,2,.28,3.89,3.89,0,0,0,3.06-1.42,5.73,5.73,0,0,0,1.24-3.9,4.48,4.48,0,0,0-.68-2.7,1.92,1.92,0,0,0-1.54-.9,3.33,3.33,0,0,0-2.06.95A9.18,9.18,0,0,0,157,128.74Z" transform="translate(0 0)"/><path class="cls-3" d="M175.79,133a6.44,6.44,0,0,1-2.2,2.26,4.7,4.7,0,0,1-2.36.76,3.6,3.6,0,0,1-2.7-1.3,5.65,5.65,0,0,1-1.2-3.94,8.42,8.42,0,0,1,.8-3.72,6.7,6.7,0,0,1,2.13-2.59,5.55,5.55,0,0,1,3.3-1q.57,0,1.72.12l.51.05h2v8.47a11.16,11.16,0,0,0,.46,3.53h-2.08A18.09,18.09,0,0,1,175.79,133Zm0-2.39v-5.15a7.82,7.82,0,0,0-2-.28,3.9,3.9,0,0,0-3.08,1.43,5.76,5.76,0,0,0-1.23,3.89,4.5,4.5,0,0,0,.67,2.69,1.91,1.91,0,0,0,1.53.91,3.36,3.36,0,0,0,2.07-.95A9,9,0,0,0,175.8,130.59Z" transform="translate(0 0)"/><path class="cls-3" d="M185.08,135.19l-5.54-11.53h2.2l4.42,9,3.69-9h2l-4.64,11.15a13.29,13.29,0,0,1-2.8,4.68,5,5,0,0,1-3.43,1.16,7.52,7.52,0,0,1-1.63-.16v-1.76a5.34,5.34,0,0,0,1.58.26,3.8,3.8,0,0,0,1.72-.37,3.65,3.65,0,0,0,1.37-1.33,8.65,8.65,0,0,0,.88-1.65Z" transform="translate(0 0)"/><path class="cls-3" d="M210.1,128.58v-3.73l-2.82,2-1-1.73,3.3-1.61-3.3-1.63,1-1.71,2.82,2V118.5h2v3.74l2.83-2,1,1.7-3.31,1.63,3.31,1.61-1,1.74-2.83-2v3.73Z" transform="translate(0 0)"/><path class="cls-3" d="M219.61,136.17h-2l10.59-17.67h1.9Z" transform="translate(0 0)"/><path class="cls-4" d="M165.37,21.08a11.93,11.93,0,0,0-11.72-9.55c-6.22,0-12.45,0-18.67,0-10.82,0-21.65,0-32.47,0A11.87,11.87,0,0,0,90.4,23.18q-.09,25.57,0,51.14a11.84,11.84,0,0,0,8.93,11.27c.35.09.76,0,1,.41h55c.07-.06.14-.16.22-.18,5.88-1.25,9.42-5.11,10.08-11l0-14q0-18.52,0-37A13.1,13.1,0,0,0,165.37,21.08Z" transform="translate(0 0)"/><path class="cls-5" d="M143.11,234l5.22,12.85L142,243.34q-8-4.46-16.08-8.92a3.39,3.39,0,0,0-1.73-.39l-49.37,0A12.21,12.21,0,0,1,62.44,221.6q0-20.22,0-40.43a12,12,0,0,1,9.39-12.1,11.69,11.69,0,0,1,2.95-.33H181a12.16,12.16,0,0,1,12.5,10.48,10.23,10.23,0,0,1,.12,1.8q0,20.43,0,40.86A12.23,12.23,0,0,1,181.43,234q-18.46,0-36.92,0Z" transform="translate(0 0)"/></svg>